HIERARCHY
ROOT mixamorig:Hips
{
	OFFSET 0.000000 201.639420 0.000000
	CHANNELS 6 Xposition Yposition Zposition Xrotation Yrotation Zrotation
	JOINT mixamorig:Spine
	{
		OFFSET 0.006200 19.524994 -2.481800
		CHANNELS 3 Xrotation Yrotation Zrotation
		JOINT mixamorig:Spine1
		{
			OFFSET -0.000900 22.835007 -2.825400
			CHANNELS 3 Xrotation Yrotation Zrotation
			JOINT mixamorig:Spine2
			{
				OFFSET -0.020600 26.552490 -3.193300
				CHANNELS 3 Xrotation Yrotation Zrotation
				JOINT mixamorig:Neck
				{
					OFFSET -0.060000 30.701813 1.352200
					CHANNELS 3 Xrotation Yrotation Zrotation
					JOINT mixamorig:Head
					{
						OFFSET -0.087200 22.547607 3.670900
						CHANNELS 3 Xrotation Yrotation Zrotation
						JOINT mixamorig:HeadTop_End
						{
							OFFSET -0.830600 40.355194 7.893500
							CHANNELS 3 Xrotation Yrotation Zrotation
							End Site
							{
								OFFSET 0.000000 30.592346 0.000000
							}
						}
						JOINT mixamorig:RightEye
						{
							OFFSET -6.302100 18.118591 16.197100
							CHANNELS 3 Xrotation Yrotation Zrotation
							End Site
							{
								OFFSET 0.000000 30.592346 0.000000
							}
						}
						JOINT mixamorig:LeftEye
						{
							OFFSET 6.741500 18.382690 16.401899
							CHANNELS 3 Xrotation Yrotation Zrotation
							End Site
							{
								OFFSET 0.000000 30.592346 0.000000
							}
						}
					}
				}
				JOINT mixamorig:LeftShoulder
				{
					OFFSET 11.924900 18.230499 1.425400
					CHANNELS 3 Xrotation Yrotation Zrotation
					JOINT mixamorig:LeftArm
					{
						OFFSET 25.435989 -0.697632 -5.229300
						CHANNELS 3 Xrotation Yrotation Zrotation
						JOINT mixamorig:LeftForeArm
						{
							OFFSET 54.684776 0.000000 0.000000
							CHANNELS 3 Xrotation Yrotation Zrotation
							JOINT mixamorig:LeftHand
							{
								OFFSET 55.098175 0.000000 0.000000
								CHANNELS 3 Xrotation Yrotation Zrotation
								JOINT mixamorig:LeftHandMiddle1
								{
									OFFSET 23.369751 0.000000 0.000000
									CHANNELS 3 Xrotation Yrotation Zrotation
									JOINT mixamorig:LeftHandMiddle2
									{
										OFFSET 6.378677 0.000000 0.000000
										CHANNELS 3 Xrotation Yrotation Zrotation
										JOINT mixamorig:LeftHandMiddle3
										{
											OFFSET 6.148331 0.000000 0.000000
											CHANNELS 3 Xrotation Yrotation Zrotation
											JOINT mixamorig:LeftHandMiddle4
											{
												OFFSET 6.582504 0.000000 0.000000
												CHANNELS 3 Xrotation Yrotation Zrotation
												End Site
												{
													OFFSET -1.168900 6.395691 1.028606
												}
											}
										}
									}
								}
								JOINT mixamorig:LeftHandThumb1
								{
									OFFSET 7.235672 -3.848206 5.434273
									CHANNELS 3 Xrotation Yrotation Zrotation
									JOINT mixamorig:LeftHandThumb2
									{
										OFFSET 6.568451 -3.792297 3.792300
										CHANNELS 3 Xrotation Yrotation Zrotation
										JOINT mixamorig:LeftHandThumb3
										{
											OFFSET 6.063080 -3.500519 3.500518
											CHANNELS 3 Xrotation Yrotation Zrotation
											JOINT mixamorig:LeftHandThumb4
											{
												OFFSET 4.793182 -2.767334 2.767349
												CHANNELS 3 Xrotation Yrotation Zrotation
												End Site
												{
													OFFSET 0.101639 6.054260 1.275483
												}
											}
										}
									}
								}
								JOINT mixamorig:LeftHandIndex1
								{
									OFFSET 23.101074 -0.309540 4.992809
									CHANNELS 3 Xrotation Yrotation Zrotation
									JOINT mixamorig:LeftHandIndex2
									{
										OFFSET 6.226883 0.000000 0.000000
										CHANNELS 3 Xrotation Yrotation Zrotation
										JOINT mixamorig:LeftHandIndex3
										{
											OFFSET 6.094330 0.000000 0.000000
											CHANNELS 3 Xrotation Yrotation Zrotation
											JOINT mixamorig:LeftHandIndex4
											{
												OFFSET 5.482605 0.000000 0.000000
												CHANNELS 3 Xrotation Yrotation Zrotation
												End Site
												{
													OFFSET -1.427902 5.233032 0.797164
												}
											}
										}
									}
								}
								JOINT mixamorig:LeftHandRing1
								{
									OFFSET 22.299240 0.021149 -3.964172
									CHANNELS 3 Xrotation Yrotation Zrotation
									JOINT mixamorig:LeftHandRing2
									{
										OFFSET 6.321869 0.000000 0.000000
										CHANNELS 3 Xrotation Yrotation Zrotation
										JOINT mixamorig:LeftHandRing3
										{
											OFFSET 5.899796 0.000000 0.000000
											CHANNELS 3 Xrotation Yrotation Zrotation
											JOINT mixamorig:LeftHandRing4
											{
												OFFSET 6.517899 0.000000 0.000000
												CHANNELS 3 Xrotation Yrotation Zrotation
												End Site
												{
													OFFSET -1.637299 6.232208 0.980890
												}
											}
										}
									}
								}
								JOINT mixamorig:LeftHandPinky1
								{
									OFFSET 20.463791 -0.302338 -8.562233
									CHANNELS 3 Xrotation Yrotation Zrotation
									JOINT mixamorig:LeftHandPinky2
									{
										OFFSET 6.908646 0.000000 0.000000
										CHANNELS 3 Xrotation Yrotation Zrotation
										JOINT mixamorig:LeftHandPinky3
										{
											OFFSET 4.622849 0.000000 0.000000
											CHANNELS 3 Xrotation Yrotation Zrotation
											JOINT mixamorig:LeftHandPinky4
											{
												OFFSET 5.216080 0.000000 0.000000
												CHANNELS 3 Xrotation Yrotation Zrotation
												End Site
												{
													OFFSET -0.606308 5.116241 0.814926
												}
											}
										}
									}
								}
							}
						}
					}
				}
				JOINT mixamorig:RightShoulder
				{
					OFFSET -12.001300 18.284088 1.348900
					CHANNELS 3 Xrotation Yrotation Zrotation
					JOINT mixamorig:RightArm
					{
						OFFSET -25.308500 -0.751312 -5.164599
						CHANNELS 3 Xrotation Yrotation Zrotation
						JOINT mixamorig:RightForeArm
						{
							OFFSET -54.684429 0.000000 0.000000
							CHANNELS 3 Xrotation Yrotation Zrotation
							JOINT mixamorig:RightHand
							{
								OFFSET -55.150291 0.000000 0.000000
								CHANNELS 3 Xrotation Yrotation Zrotation
								JOINT mixamorig:RightHandMiddle1
								{
									OFFSET -23.317566 0.000000 0.000000
									CHANNELS 3 Xrotation Yrotation Zrotation
									JOINT mixamorig:RightHandMiddle2
									{
										OFFSET -6.378403 0.000000 0.000000
										CHANNELS 3 Xrotation Yrotation Zrotation
										JOINT mixamorig:RightHandMiddle3
										{
											OFFSET -6.148193 0.000000 0.000000
											CHANNELS 3 Xrotation Yrotation Zrotation
											JOINT mixamorig:RightHandMiddle4
											{
												OFFSET -6.583389 0.000000 0.000000
												CHANNELS 3 Xrotation Yrotation Zrotation
												End Site
												{
													OFFSET 1.171692 6.395905 1.029786
												}
											}
										}
									}
								}
								JOINT mixamorig:RightHandThumb1
								{
									OFFSET -7.190521 -3.860474 5.435846
									CHANNELS 3 Xrotation Yrotation Zrotation
									JOINT mixamorig:RightHandThumb2
									{
										OFFSET -6.567429 -3.791718 3.791708
										CHANNELS 3 Xrotation Yrotation Zrotation
										JOINT mixamorig:RightHandThumb3
										{
											OFFSET -6.062469 -3.500153 3.500166
											CHANNELS 3 Xrotation Yrotation Zrotation
											JOINT mixamorig:RightHandThumb4
											{
												OFFSET -4.792618 -2.767029 2.767022
												CHANNELS 3 Xrotation Yrotation Zrotation
												End Site
												{
													OFFSET -0.100327 6.053253 1.276754
												}
											}
										}
									}
								}
								JOINT mixamorig:RightHandIndex1
								{
									OFFSET -23.048981 -0.310791 4.992554
									CHANNELS 3 Xrotation Yrotation Zrotation
									JOINT mixamorig:RightHandIndex2
									{
										OFFSET -6.227539 0.000000 0.000000
										CHANNELS 3 Xrotation Yrotation Zrotation
										JOINT mixamorig:RightHandIndex3
										{
											OFFSET -6.095047 0.000000 0.000000
											CHANNELS 3 Xrotation Yrotation Zrotation
											JOINT mixamorig:RightHandIndex4
											{
												OFFSET -5.484772 0.000000 0.000000
												CHANNELS 3 Xrotation Yrotation Zrotation
												End Site
												{
													OFFSET 1.420593 5.237305 0.797056
												}
											}
										}
									}
								}
								JOINT mixamorig:RightHandRing1
								{
									OFFSET -22.246323 0.020569 -3.963762
									CHANNELS 3 Xrotation Yrotation Zrotation
									JOINT mixamorig:RightHandRing2
									{
										OFFSET -6.322128 0.000000 0.000000
										CHANNELS 3 Xrotation Yrotation Zrotation
										JOINT mixamorig:RightHandRing3
										{
											OFFSET -5.900024 0.000000 0.000000
											CHANNELS 3 Xrotation Yrotation Zrotation
											JOINT mixamorig:RightHandRing4
											{
												OFFSET -6.518356 0.000000 0.000000
												CHANNELS 3 Xrotation Yrotation Zrotation
												End Site
												{
													OFFSET 1.636398 6.232697 0.982186
												}
											}
										}
									}
								}
								JOINT mixamorig:RightHandPinky1
								{
									OFFSET -20.411011 -0.303314 -8.561701
									CHANNELS 3 Xrotation Yrotation Zrotation
									JOINT mixamorig:RightHandPinky2
									{
										OFFSET -6.907349 0.000000 0.000000
										CHANNELS 3 Xrotation Yrotation Zrotation
										JOINT mixamorig:RightHandPinky3
										{
											OFFSET -4.623840 0.000000 0.000000
											CHANNELS 3 Xrotation Yrotation Zrotation
											JOINT mixamorig:RightHandPinky4
											{
												OFFSET -5.218353 0.000000 0.000000
												CHANNELS 3 Xrotation Yrotation Zrotation
												End Site
												{
													OFFSET 0.602097 5.118835 0.816273
												}
											}
										}
									}
								}
							}
						}
					}
				}
			}
		}
	}
	JOINT mixamorig:LeftUpLeg
	{
		OFFSET 18.168400 -13.561905 -0.039000
		CHANNELS 3 Xrotation Yrotation Zrotation
		JOINT mixamorig:LeftLeg
		{
			OFFSET 0.577358 -80.825211 -3.695000
			CHANNELS 3 Xrotation Yrotation Zrotation
			JOINT mixamorig:LeftFoot
			{
				OFFSET -0.577356 -83.370262 -6.520700
				CHANNELS 3 Xrotation Yrotation Zrotation
				JOINT mixamorig:LeftToeBase
				{
					OFFSET 0.750401 -20.798306 25.135401
					CHANNELS 3 Xrotation Yrotation Zrotation
					JOINT mixamorig:LeftToe_End
					{
						OFFSET -0.000500 0.001200 19.917799
						CHANNELS 3 Xrotation Yrotation Zrotation
						End Site
						{
							OFFSET 0.000000 19.917805 0.000000
						}
					}
				}
			}
		}
	}
	JOINT mixamorig:RightUpLeg
	{
		OFFSET -18.162500 -13.585098 -0.041000
		CHANNELS 3 Xrotation Yrotation Zrotation
		JOINT mixamorig:RightLeg
		{
			OFFSET -0.595024 -80.945297 -3.631900
			CHANNELS 3 Xrotation Yrotation Zrotation
			JOINT mixamorig:RightFoot
			{
				OFFSET 0.595024 -83.218193 -6.561200
				CHANNELS 3 Xrotation Yrotation Zrotation
				JOINT mixamorig:RightToeBase
				{
					OFFSET -0.753601 -20.807106 25.115000
					CHANNELS 3 Xrotation Yrotation Zrotation
					JOINT mixamorig:RightToe_End
					{
						OFFSET 0.000299 0.001700 19.918200
						CHANNELS 3 Xrotation Yrotation Zrotation
						End Site
						{
							OFFSET 0.000000 19.918203 0.000000
						}
					}
				}
			}
		}
	}
}
MOTION
Frames: 4
Frame Time: 0.033333
7.585100 120.874939 12.877981 -4.443120 -24.582361 2.492024 14.217342 4.133343 -7.157334 -3.047381 0.783168 -3.044622 -3.019631 0.678944 -3.098622 4.349083 0.545088 15.676389 -13.531077 20.895951 -7.057794 -0.000000 -0.000000 0.000000 -0.000000 -0.000000 0.000000 -0.000000 -0.000000 0.000000 0.102362 -28.483480 9.641405 -40.175180 0.228813 3.713000 0.000028 -52.240077 0.000016 -0.269464 3.640080 2.271282 0.149358 1.429212 -11.931373 0.150156 1.432970 -11.963373 0.037533 0.719446 -5.972749 -0.000000 0.000000 0.000000 -1.568832 5.984172 6.483753 4.301508 12.276256 1.079023 -0.376518 3.733947 2.754822 0.000000 -0.000000 -0.000001 0.149761 1.431099 -11.947374 0.149760 1.431090 -11.947367 0.037530 0.719451 -5.972745 -0.000002 0.000000 -0.000002 0.149755 1.431097 -11.947365 0.149762 1.431096 -11.947372 0.037531 0.719453 -5.972748 0.000000 -0.000000 -0.000000 0.974376 5.400955 -11.486112 0.144549 -2.624526 -12.447083 0.037536 0.719449 -5.972749 0.000000 0.000001 0.000001 8.801768 22.076450 -24.796957 -54.393577 6.509549 -15.974207 -0.000014 51.935269 0.000001 -6.462715 -5.223485 -2.603608 0.051735 -0.848338 6.978858 0.051726 -0.848319 6.978859 0.012941 -0.424973 3.489252 0.000002 0.000000 -0.000003 -1.849174 -3.581851 -6.586065 5.450905 -17.742376 -0.843538 -0.852618 -4.404672 -2.580776 0.000000 0.000001 0.000001 0.051732 -0.848346 6.978864 0.051732 -0.848315 6.978870 0.012943 -0.424957 3.489238 -0.000000 0.000000 0.000001 0.051728 -0.848340 6.978864 0.051725 -0.848324 6.978860 0.012947 -0.424968 3.489246 -0.000002 -0.000001 -0.000002 0.051733 -0.848344 6.978860 0.051731 -0.848322 6.978865 0.012939 -0.424966 3.489251 0.000000 -0.000002 0.000001 -78.870523 -8.226716 19.475101 106.513084 0.552554 -3.951454 -15.906478 0.702503 -5.071628 -6.604498 0.000001 0.000001 0.000000 0.000000 0.000000 -16.006236 -3.356908 -12.904405 104.109138 -1.596893 -1.466617 37.027306 2.038020 6.145233 1.421639 -0.061062 -2.459566 -0.000001 -0.000003 -0.000004 
7.510633 120.469849 11.191723 -4.342686 -24.159069 2.675800 16.102647 3.886869 -8.361008 -3.578833 0.857292 -2.910404 -3.552924 0.737917 -2.977092 4.692649 0.623672 15.249574 -14.403079 20.303280 -6.283170 0.000000 -0.000000 -0.000000 0.000000 -0.000000 -0.000000 0.000000 -0.000000 -0.000000 0.421225 -24.776344 10.091990 -42.335719 6.565598 0.757878 0.000032 -58.581515 0.000038 1.964882 4.968360 2.034583 0.149193 1.428433 -11.924959 0.149992 1.432203 -11.956942 0.037492 0.719072 -5.969540 0.000001 -0.000000 0.000001 -1.569912 6.052871 6.494006 4.331619 12.646854 1.106412 -0.359518 3.918827 2.772983 0.000000 -0.000002 -0.000001 0.149593 1.430318 -11.940945 0.149593 1.430344 -11.940942 0.037493 0.719062 -5.969550 0.000001 -0.000001 0.000000 0.149594 1.430330 -11.940941 0.149595 1.430333 -11.940958 0.037488 0.719071 -5.969540 -0.000003 -0.000000 -0.000000 0.973766 5.400305 -11.479646 0.144384 -2.625300 -12.440691 0.037490 0.719055 -5.969551 0.000000 -0.000000 0.000001 7.710526 17.065286 -19.942998 -59.276671 1.123865 -14.063045 -0.000008 49.663183 0.000000 0.043619 -3.390116 -2.140217 0.021461 -0.546951 4.492819 0.021452 -0.546935 4.492777 0.005364 -0.273688 2.246355 0.000001 0.000001 -0.000002 -1.849308 -3.581737 -6.586211 5.450917 -17.742373 -0.843498 -0.852629 -4.404643 -2.580767 -0.000001 -0.000001 0.000000 0.021462 -0.546958 4.492812 0.021451 -0.546940 4.492793 0.005374 -0.273674 2.246346 0.000005 -0.000002 -0.000001 0.021453 -0.546952 4.492809 0.021457 -0.546945 4.492787 0.005369 -0.273685 2.246351 0.000000 0.000000 0.000000 0.021460 -0.546946 4.492813 0.021450 -0.546950 4.492793 0.005376 -0.273681 2.246347 0.000001 -0.000000 0.000001 -79.574634 -8.471117 19.341243 105.787910 0.699009 -3.935298 -14.252805 0.847375 -6.582228 -6.538009 -0.000006 0.000002 0.000000 -0.000000 0.000001 -17.296715 -4.042658 -13.271998 105.300623 -2.323523 -1.198140 36.644866 1.709320 5.002484 1.697883 -0.087251 -2.942101 0.000000 0.000000 0.000003 
7.442572 120.016953 9.060442 -4.009934 -23.467835 2.914027 18.655682 2.668312 -9.170418 -4.267321 0.803393 -2.566782 -4.249045 0.670960 -2.638153 5.774107 1.149011 13.383449 -16.631079 20.066102 -5.036576 0.000000 -0.000000 -0.000000 0.000000 -0.000000 -0.000000 0.000000 -0.000000 -0.000000 1.394591 -19.640684 10.177641 -41.018360 15.488883 -2.525112 0.000028 -68.381211 0.000023 2.329346 5.370013 1.670013 0.147040 1.418176 -11.838054 0.147822 1.421972 -11.870012 0.036951 0.713832 -5.926104 -0.000000 0.000000 -0.000001 -1.571027 6.123358 6.504547 4.361914 13.021568 1.133946 -0.342359 4.105731 2.791296 0.000001 -0.000006 -0.000000 0.147440 1.420084 -11.854037 0.147435 1.420073 -11.854029 0.036954 0.713850 -5.926103 0.000000 0.000001 -0.000001 0.147439 1.420080 -11.854028 0.147439 1.420085 -11.854026 0.036949 0.713839 -5.926109 0.000000 0.000000 -0.000001 0.965554 5.391298 -11.392236 0.142121 -2.635543 -12.353916 0.036952 0.713856 -5.926103 -0.000003 -0.000000 0.000001 6.693669 13.825311 -14.722415 -63.439022 -5.680051 -12.834292 -0.000016 49.912403 0.000010 1.537502 -1.975353 -2.152573 0.010595 -0.384501 3.156786 0.010606 -0.384503 3.156772 0.002655 -0.192321 1.578371 -0.000006 0.000003 -0.000001 -1.849287 -3.581749 -6.586193 5.450925 -17.742362 -0.843495 -0.852627 -4.404657 -2.580761 -0.000002 -0.000000 -0.000001 0.010600 -0.384502 3.156790 0.010592 -0.384505 3.156775 0.002657 -0.192340 1.578379 0.000002 -0.000003 -0.000003 0.010594 -0.384495 3.156778 0.010601 -0.384519 3.156779 0.002650 -0.192319 1.578372 0.000000 -0.000000 -0.000001 0.010592 -0.384494 3.156789 0.010606 -0.384523 3.156781 0.002654 -0.192317 1.578363 -0.000003 0.000001 -0.000001 -80.739140 -8.764864 18.922832 104.853909 0.797943 -3.874578 -12.334844 0.893111 -7.700183 -6.440497 -0.000001 0.000001 -0.000000 -0.000000 -0.000000 -19.043614 -4.503942 -13.649188 106.697957 -2.717732 -0.619379 36.706642 1.484810 4.156826 1.545357 -0.072236 -2.675980 -0.000001 0.000002 0.000003 
7.693746 119.084183 6.383398 -3.916843 -23.077203 2.946880 22.598996 1.097743 -8.946088 -4.952907 0.686274 -2.495086 -4.939351 0.531039 -2.564983 6.859275 1.829799 10.700268 -19.785844 19.993982 -3.408145 -0.000000 0.000000 0.000000 -0.000000 0.000000 0.000000 -0.000000 0.000000 0.000000 1.777502 -12.837012 9.766753 -35.448767 23.975378 -8.167130 -0.000001 -77.622866 0.000032 2.163437 3.854829 1.020133 0.147063 1.418281 -11.838969 0.147859 1.422076 -11.870946 0.036953 0.713914 -5.926564 -0.000002 -0.000000 0.000000 -1.572188 6.195440 6.515322 4.392319 13.399295 1.161518 -0.325139 4.294152 2.809717 0.000002 0.000001 -0.000001 0.147451 1.420169 -11.854962 0.147459 1.420183 -11.854962 0.036955 0.713930 -5.926559 -0.000002 -0.000000 0.000001 0.147457 1.420175 -11.854957 0.147457 1.420189 -11.854956 0.036956 0.713914 -5.926562 0.000000 -0.000000 -0.000000 0.965650 5.391403 -11.393163 0.142150 -2.635438 -12.354843 0.036950 0.713916 -5.926567 0.000001 0.000000 -0.000001 6.028415 12.406753 -7.759711 -62.743402 -13.633822 -14.298703 0.000005 53.216732 -0.000020 -7.885481 -2.216371 -2.375487 0.007635 -0.326663 2.681576 0.007644 -0.326661 2.681575 0.001907 -0.163385 1.340769 0.000005 -0.000001 0.000001 -1.849230 -3.581793 -6.586133 5.450911 -17.742376 -0.843523 -0.852619 -4.404658 -2.580770 -0.000001 0.000001 -0.000005 0.007631 -0.326662 2.681577 0.007655 -0.326668 2.681584 0.001899 -0.163370 1.340771 0.000001 0.000005 -0.000004 0.007633 -0.326665 2.681572 0.007645 -0.326667 2.681580 0.001902 -0.163379 1.340773 -0.000002 -0.000003 0.000002 0.007638 -0.326665 2.681578 0.007645 -0.326667 2.681582 0.001896 -0.163373 1.340769 0.000000 -0.000001 0.000001 -81.974298 -9.294357 18.707092 104.041061 0.764750 -3.882636 -10.345946 0.879532 -8.584774 -6.211079 0.000002 0.000002 -0.000000 -0.000000 -0.000000 -20.949626 -4.192995 -13.905738 108.606626 -2.779237 0.197730 37.143873 1.395125 3.765587 1.187678 -0.042584 -2.053559 0.000000 0.000000 -0.000001 
